<mxfile host="app.diagrams.net" agent="Mozilla/5.0 (Windows NT 10.0; Win64; x64) AppleWebKit/537.36 (KHTML, like Gecko) Chrome/138.0.0.0 Safari/537.36" version="28.0.6">
  <diagram name="페이지-1" id="-0eHbQZTOslncM3-8MCl">
    <mxGraphModel dx="1426" dy="743" grid="1" gridSize="10" guides="1" tooltips="1" connect="1" arrows="1" fold="1" page="1" pageScale="1" pageWidth="827" pageHeight="1169" math="0" shadow="0">
      <root>
        <mxCell id="0" />
        <mxCell id="1" parent="0" />
        <mxCell id="8dgADZhNpHuNwpRHaDgx-1" style="edgeStyle=orthogonalEdgeStyle;rounded=0;orthogonalLoop=1;jettySize=auto;html=1;exitX=0.5;exitY=1;exitDx=0;exitDy=0;" parent="1" source="8dgADZhNpHuNwpRHaDgx-2" target="8dgADZhNpHuNwpRHaDgx-6" edge="1">
          <mxGeometry relative="1" as="geometry" />
        </mxCell>
        <mxCell id="8dgADZhNpHuNwpRHaDgx-2" value="Call 인입" style="rounded=0;whiteSpace=wrap;html=1;" parent="1" vertex="1">
          <mxGeometry x="179" y="40" width="120" height="40" as="geometry" />
        </mxCell>
        <mxCell id="8dgADZhNpHuNwpRHaDgx-3" value="" style="shape=cylinder3;whiteSpace=wrap;html=1;boundedLbl=1;backgroundOutline=1;size=15;" parent="1" vertex="1">
          <mxGeometry x="520" y="100" width="60" height="80" as="geometry" />
        </mxCell>
        <mxCell id="8dgADZhNpHuNwpRHaDgx-4" style="edgeStyle=orthogonalEdgeStyle;rounded=0;orthogonalLoop=1;jettySize=auto;html=1;entryX=1;entryY=0.5;entryDx=0;entryDy=0;exitX=0;exitY=0.5;exitDx=0;exitDy=0;exitPerimeter=0;" parent="1" target="8dgADZhNpHuNwpRHaDgx-6" edge="1" source="8dgADZhNpHuNwpRHaDgx-3">
          <mxGeometry relative="1" as="geometry">
            <mxPoint x="639" y="130" as="sourcePoint" />
            <mxPoint x="309" y="150" as="targetPoint" />
            <Array as="points">
              <mxPoint x="520" y="140" />
            </Array>
          </mxGeometry>
        </mxCell>
        <mxCell id="8dgADZhNpHuNwpRHaDgx-5" style="edgeStyle=orthogonalEdgeStyle;rounded=0;orthogonalLoop=1;jettySize=auto;html=1;exitX=0.5;exitY=1;exitDx=0;exitDy=0;entryX=0.5;entryY=0;entryDx=0;entryDy=0;" parent="1" source="8dgADZhNpHuNwpRHaDgx-6" target="8dgADZhNpHuNwpRHaDgx-9" edge="1">
          <mxGeometry relative="1" as="geometry" />
        </mxCell>
        <mxCell id="8dgADZhNpHuNwpRHaDgx-6" value="전화번호 조회" style="rounded=0;whiteSpace=wrap;html=1;" parent="1" vertex="1">
          <mxGeometry x="179" y="120" width="120" height="40" as="geometry" />
        </mxCell>
        <mxCell id="8dgADZhNpHuNwpRHaDgx-7" style="edgeStyle=orthogonalEdgeStyle;rounded=0;orthogonalLoop=1;jettySize=auto;html=1;exitX=1;exitY=0.5;exitDx=0;exitDy=0;entryX=0.564;entryY=0;entryDx=0;entryDy=0;entryPerimeter=0;" parent="1" source="8dgADZhNpHuNwpRHaDgx-9" target="8dgADZhNpHuNwpRHaDgx-13" edge="1">
          <mxGeometry relative="1" as="geometry">
            <mxPoint x="419" y="290" as="targetPoint" />
          </mxGeometry>
        </mxCell>
        <mxCell id="8dgADZhNpHuNwpRHaDgx-8" style="edgeStyle=orthogonalEdgeStyle;rounded=0;orthogonalLoop=1;jettySize=auto;html=1;exitX=0.5;exitY=1;exitDx=0;exitDy=0;entryX=0.5;entryY=0;entryDx=0;entryDy=0;" parent="1" source="8dgADZhNpHuNwpRHaDgx-9" target="8dgADZhNpHuNwpRHaDgx-11" edge="1">
          <mxGeometry relative="1" as="geometry" />
        </mxCell>
        <mxCell id="8dgADZhNpHuNwpRHaDgx-9" value="자료가 있나?" style="rhombus;whiteSpace=wrap;html=1;" parent="1" vertex="1">
          <mxGeometry x="179" y="190" width="120" height="80" as="geometry" />
        </mxCell>
        <mxCell id="8dgADZhNpHuNwpRHaDgx-10" style="edgeStyle=orthogonalEdgeStyle;rounded=0;orthogonalLoop=1;jettySize=auto;html=1;exitX=0.5;exitY=1;exitDx=0;exitDy=0;entryX=0;entryY=0.5;entryDx=0;entryDy=0;" parent="1" source="8dgADZhNpHuNwpRHaDgx-11" target="8dgADZhNpHuNwpRHaDgx-16" edge="1">
          <mxGeometry relative="1" as="geometry">
            <mxPoint x="239" y="440" as="targetPoint" />
          </mxGeometry>
        </mxCell>
        <mxCell id="8dgADZhNpHuNwpRHaDgx-11" value="번호만 보여줌" style="rounded=0;whiteSpace=wrap;html=1;" parent="1" vertex="1">
          <mxGeometry x="179" y="310" width="120" height="40" as="geometry" />
        </mxCell>
        <mxCell id="8dgADZhNpHuNwpRHaDgx-12" style="edgeStyle=orthogonalEdgeStyle;rounded=0;orthogonalLoop=1;jettySize=auto;html=1;exitX=0.5;exitY=1;exitDx=0;exitDy=0;entryX=1;entryY=0.5;entryDx=0;entryDy=0;" parent="1" source="8dgADZhNpHuNwpRHaDgx-13" target="8dgADZhNpHuNwpRHaDgx-16" edge="1">
          <mxGeometry relative="1" as="geometry">
            <mxPoint x="414" y="440" as="targetPoint" />
          </mxGeometry>
        </mxCell>
        <mxCell id="8dgADZhNpHuNwpRHaDgx-13" value="일부 정보 보여줌" style="rounded=0;whiteSpace=wrap;html=1;" parent="1" vertex="1">
          <mxGeometry x="359" y="310" width="110" height="40" as="geometry" />
        </mxCell>
        <mxCell id="8dgADZhNpHuNwpRHaDgx-14" style="edgeStyle=orthogonalEdgeStyle;rounded=0;orthogonalLoop=1;jettySize=auto;html=1;exitX=0.5;exitY=1;exitDx=0;exitDy=0;" parent="1" source="8dgADZhNpHuNwpRHaDgx-16" edge="1">
          <mxGeometry relative="1" as="geometry">
            <mxPoint x="329" y="510" as="targetPoint" />
          </mxGeometry>
        </mxCell>
        <mxCell id="8dgADZhNpHuNwpRHaDgx-15" style="edgeStyle=orthogonalEdgeStyle;rounded=0;orthogonalLoop=1;jettySize=auto;html=1;exitX=0.5;exitY=1;exitDx=0;exitDy=0;entryX=0;entryY=0.5;entryDx=0;entryDy=0;" parent="1" source="8dgADZhNpHuNwpRHaDgx-16" target="8dgADZhNpHuNwpRHaDgx-2" edge="1">
          <mxGeometry relative="1" as="geometry">
            <mxPoint x="49" y="60" as="targetPoint" />
            <Array as="points">
              <mxPoint x="329" y="475" />
              <mxPoint x="40" y="475" />
              <mxPoint x="40" y="60" />
            </Array>
          </mxGeometry>
        </mxCell>
        <mxCell id="8dgADZhNpHuNwpRHaDgx-16" value="CID수신내역에 저장" style="rounded=0;whiteSpace=wrap;html=1;" parent="1" vertex="1">
          <mxGeometry x="269" y="410" width="120" height="40" as="geometry" />
        </mxCell>
        <mxCell id="8dgADZhNpHuNwpRHaDgx-20" style="edgeStyle=orthogonalEdgeStyle;rounded=0;orthogonalLoop=1;jettySize=auto;html=1;exitX=1;exitY=0.75;exitDx=0;exitDy=0;entryX=0.5;entryY=1;entryDx=0;entryDy=0;entryPerimeter=0;" parent="1" source="8dgADZhNpHuNwpRHaDgx-16" target="8dgADZhNpHuNwpRHaDgx-3" edge="1">
          <mxGeometry relative="1" as="geometry" />
        </mxCell>
        <mxCell id="8dgADZhNpHuNwpRHaDgx-21" value="접수구분" style="rhombus;whiteSpace=wrap;html=1;" parent="1" vertex="1">
          <mxGeometry x="264.5" y="510" width="129" height="80" as="geometry" />
        </mxCell>
        <mxCell id="_5eFk2Mrz_w6HB1ojvTJ-2" value="CID 로그 테이블" style="rounded=1;whiteSpace=wrap;html=1;" vertex="1" parent="1">
          <mxGeometry x="670" y="50" width="120" height="40" as="geometry" />
        </mxCell>
        <mxCell id="_5eFk2Mrz_w6HB1ojvTJ-3" value="전화번호가 키" style="rounded=1;whiteSpace=wrap;html=1;" vertex="1" parent="1">
          <mxGeometry x="670" y="10" width="120" height="30" as="geometry" />
        </mxCell>
        <mxCell id="_5eFk2Mrz_w6HB1ojvTJ-4" value="고객정보 테이블" style="rounded=1;whiteSpace=wrap;html=1;" vertex="1" parent="1">
          <mxGeometry x="670" y="100" width="120" height="40" as="geometry" />
        </mxCell>
        <mxCell id="_5eFk2Mrz_w6HB1ojvTJ-5" value="접수 table" style="rounded=1;whiteSpace=wrap;html=1;" vertex="1" parent="1">
          <mxGeometry x="670" y="150" width="120" height="40" as="geometry" />
        </mxCell>
        <mxCell id="_5eFk2Mrz_w6HB1ojvTJ-6" value="" style="endArrow=classic;html=1;rounded=0;" edge="1" parent="1">
          <mxGeometry width="50" height="50" relative="1" as="geometry">
            <mxPoint x="330" y="590" as="sourcePoint" />
            <mxPoint x="330" y="650" as="targetPoint" />
          </mxGeometry>
        </mxCell>
        <mxCell id="_5eFk2Mrz_w6HB1ojvTJ-7" value="" style="endArrow=classic;html=1;rounded=0;" edge="1" parent="1">
          <mxGeometry width="50" height="50" relative="1" as="geometry">
            <mxPoint x="393.5" y="550" as="sourcePoint" />
            <mxPoint x="470" y="550" as="targetPoint" />
          </mxGeometry>
        </mxCell>
        <mxCell id="_5eFk2Mrz_w6HB1ojvTJ-8" value="재접수" style="text;html=1;align=center;verticalAlign=middle;whiteSpace=wrap;rounded=0;" vertex="1" parent="1">
          <mxGeometry x="400" y="520" width="60" height="30" as="geometry" />
        </mxCell>
        <mxCell id="_5eFk2Mrz_w6HB1ojvTJ-9" value="신규접수" style="text;html=1;align=center;verticalAlign=middle;whiteSpace=wrap;rounded=0;" vertex="1" parent="1">
          <mxGeometry x="250" y="600" width="60" height="30" as="geometry" />
        </mxCell>
        <mxCell id="_5eFk2Mrz_w6HB1ojvTJ-10" value="" style="rounded=0;whiteSpace=wrap;html=1;" vertex="1" parent="1">
          <mxGeometry x="273.5" y="650" width="120" height="60" as="geometry" />
        </mxCell>
      </root>
    </mxGraphModel>
  </diagram>
</mxfile>
